<?xml version="1.0" encoding="UTF-8"?><svg id="a" xmlns="http://www.w3.org/2000/svg" viewBox="0 0 750 338.16"><defs><style>.b{fill:#fff;}.c{fill:#fccb08;}.d{fill:#053561;}</style></defs><g><g><polygon class="c" points="141.12 93.67 104.39 0 0 0 0 67.92 20.63 67.92 20.63 196.18 0 196.18 0 263.95 121.5 263.95 121.5 236.99 165.27 236.99 165.27 263.95 283.06 263.95 283.06 196.18 261.6 196.18 261.6 67.92 283.06 67.92 283.06 0 177.84 0 141.12 93.67"/><path class="c" d="M285.57,67.92h20.43V196.18h-20.43v67.77h248.4v-67.77h-21.25V67.92h21.25V.15h-248.4V67.92Zm105.2,0h37.99v30.17h-37.99v-30.17Zm0,97.94h37.99v30.32h-37.99v-30.32Z"/><path class="c" d="M750,37.26L698.05,0h-109.63l-51.95,37.26v95.99l43.95,32h-43.95v61.6l51.97,37.09h109.6l51.97-37.09v-87.02l-37.53-26.41h37.53V37.26Zm-83.54,158.77h-46.25v-25.75h46.25v25.75Zm0-93.52h-46.25v-34.59h46.25v34.59Z"/></g><g><path class="d" d="M141.12,113.15L99.54,7.11H7.11V60.8H27.74V203.29H7.11v53.55H114.39v-42.52l6.52,15.57h44.79l6.69-18.34v45.3h103.57v-53.55h-21.46V60.8h21.46V7.11h-93.26l-41.58,106.04Zm-43.03,90.14v-27.9l11.68,27.9h-11.68Zm86.88,0h-9.58l9.58-26.27v26.27Z"/><polygon class="d" points="414.42 60.8 435.88 60.8 435.88 105.2 383.66 105.2 383.66 60.8 405.12 60.8 405.12 7.26 292.68 7.26 292.68 60.8 313.11 60.8 313.11 203.29 292.68 203.29 292.68 256.84 405.12 256.84 405.12 203.29 383.66 203.29 383.66 158.75 435.88 158.75 435.88 203.29 414.42 203.29 414.42 256.84 526.86 256.84 526.86 203.29 505.6 203.29 505.6 60.8 526.86 60.8 526.86 7.26 414.42 7.26 414.42 60.8"/><polygon class="d" points="742.89 106.31 742.89 40.91 695.77 7.11 590.71 7.11 543.58 40.91 543.58 129.63 589.65 163.17 673.58 163.17 673.58 203.14 613.1 203.14 613.1 172.36 543.58 172.36 543.58 223.19 590.72 256.84 695.76 256.84 742.89 223.19 742.89 143.53 694.7 109.62 613.1 109.62 613.1 60.8 673.58 60.8 673.58 106.31 742.89 106.31"/></g><g><polygon class="b" points="141.12 132.64 94.69 14.22 14.22 14.22 14.22 53.69 34.86 53.69 34.86 210.4 14.22 210.4 14.22 249.73 107.28 249.73 107.28 210.4 90.98 210.4 90.98 140 125.64 222.77 160.72 222.77 192.08 136.76 192.08 210.4 179.5 210.4 179.5 249.73 268.84 249.73 268.84 210.4 247.38 210.4 247.38 53.69 268.84 53.69 268.84 14.22 187.54 14.22 141.12 132.64"/><polygon class="b" points="421.53 53.69 442.99 53.69 442.99 112.31 376.55 112.31 376.55 53.69 398.01 53.69 398.01 14.37 299.79 14.37 299.79 53.69 320.22 53.69 320.22 210.4 299.79 210.4 299.79 249.73 398.01 249.73 398.01 210.4 376.55 210.4 376.55 151.64 442.99 151.64 442.99 210.4 421.53 210.4 421.53 249.73 519.74 249.73 519.74 210.4 498.49 210.4 498.49 53.69 519.74 53.69 519.74 14.37 421.53 14.37 421.53 53.69"/><polygon class="b" points="735.78 99.2 735.78 44.56 693.48 14.22 592.99 14.22 550.69 44.56 550.69 126.01 591.96 156.05 680.69 156.05 680.69 210.25 605.99 210.25 605.99 179.47 550.69 179.47 550.69 219.53 592.99 249.73 693.48 249.73 735.78 219.53 735.78 147.22 692.45 116.73 605.99 116.73 605.99 53.69 680.69 53.69 680.69 99.2 735.78 99.2"/></g></g><g><path class="c" d="M24.17,336.83c0,1.02-.31,1.33-1.33,1.33H1.33c-1.02,0-1.33-.31-1.33-1.33v-33.94c0-1.02,.31-1.33,1.33-1.33h6.96c1.02,0,1.33,.31,1.33,1.33v26.83h13.21c1.02,0,1.33,.31,1.33,1.33v5.79Z"/><path class="c" d="M61.7,301.55c1.02,0,1.33,.31,1.33,1.33v33.94c0,1.02-.31,1.33-1.33,1.33h-6.96c-1.02,0-1.33-.31-1.33-1.33v-33.94c0-1.02,.31-1.33,1.33-1.33h6.96Z"/><path class="c" d="M104.25,318.29h-.05v18.53c0,1.02-.31,1.33-1.33,1.33h-6.66c-1.02,0-1.33-.31-1.33-1.33v-33.94c0-1.02,.31-1.33,1.33-1.33h6.14c1.08,0,1.48,.2,2.05,1.13l11.01,17.61h.05v-17.41c0-1.02,.31-1.33,1.33-1.33h6.66c1.02,0,1.33,.31,1.33,1.33v33.94c0,1.02-.31,1.33-1.33,1.33h-5.43c-1.08,0-1.48-.2-2.05-1.13l-11.72-18.74Z"/><path class="c" d="M166.3,322.95h-.05v13.88c0,1.02-.31,1.33-1.33,1.33h-6.96c-1.02,0-1.33-.31-1.33-1.33v-33.94c0-1.02,.31-1.33,1.33-1.33h6.96c1.02,0,1.33,.31,1.33,1.33v12.75h.05l9.27-13c.61-.87,1.02-1.08,2.1-1.08h8.5c.92,0,1.08,.31,.56,1.08l-11.83,16.13,14.03,18.33c.56,.77,.41,1.08-.51,1.08h-9.42c-1.08,0-1.48-.2-2.15-1.08l-10.55-14.13Z"/><path class="c" d="M261.69,328.02c0,.92,.77,1.69,1.69,1.69h6.55c.92,0,1.69-.77,1.69-1.69v-1.59c0-1.74-.56-2.2-2.46-2.3l-9.32-.41c-4.92-.2-6.55-2.71-6.55-6.09v-9.98c0-3.38,1.64-6.09,6.55-6.09h14.59c4.92,0,6.55,2.71,6.55,6.09v2.05c0,1.08-.26,1.38-1.33,1.59l-6.76,1.33c-1.02,.2-1.33-.05-1.33-1.08,0-.77-.77-1.54-1.69-1.54h-5.27c-.92,0-1.69,.77-1.69,1.69v.87c0,1.84,.67,2.3,2.46,2.41l9.37,.41c4.92,.2,6.55,2.76,6.55,6.14v10.55c0,3.38-1.64,6.09-6.55,6.09h-15.92c-4.92,0-6.55-2.71-6.55-6.09v-2.36c0-1.08,.26-1.38,1.33-1.59l6.76-1.33c1.02-.2,1.33,.05,1.33,1.08v.15Z"/><path class="c" d="M322,315.38h10.96v-12.49c0-1.02,.31-1.33,1.33-1.33h6.96c1.02,0,1.33,.31,1.33,1.33v33.94c0,1.02-.31,1.33-1.33,1.33h-6.96c-1.02,0-1.33-.31-1.33-1.33v-13.11h-10.96v13.11c0,1.02-.31,1.33-1.33,1.33h-6.96c-1.02,0-1.33-.31-1.33-1.33v-33.94c0-1.02,.31-1.33,1.33-1.33h6.96c1.02,0,1.33,.31,1.33,1.33v12.49Z"/><path class="c" d="M405.21,307.64v24.42c0,3.38-1.64,6.09-6.55,6.09h-17.87c-4.92,0-6.55-2.71-6.55-6.09v-24.42c0-3.38,1.64-6.09,6.55-6.09h17.87c4.92,0,6.55,2.71,6.55,6.09Zm-9.63,22.07v-19.71h-11.72v19.71h11.72Z"/><path class="c" d="M436.85,302.88c0-1.02,.31-1.33,1.33-1.33h20.53c4.92,0,6.55,2.71,6.55,6.09v11.32c0,3.38-1.64,6.04-6.55,6.04h-.2l8.35,12.08c.56,.77,.36,1.08-.56,1.08h-8.45c-1.08,0-1.48-.2-2.05-1.13l-7.94-12.03h-1.38v11.83c0,1.02-.31,1.33-1.33,1.33h-6.96c-1.02,0-1.33-.31-1.33-1.33v-33.94Zm9.63,7.12v6.55h7.48c.92,0,1.69-.77,1.69-1.69v-3.17c0-.92-.77-1.69-1.69-1.69h-7.48Z"/><path class="c" d="M495.17,310c-1.02,0-1.33-.31-1.33-1.33v-5.79c0-1.02,.31-1.33,1.33-1.33h23.24c1.02,0,1.33,.31,1.33,1.33v5.79c0,1.02-.31,1.33-1.33,1.33h-6.81v26.83c0,1.02-.31,1.33-1.33,1.33h-6.96c-1.02,0-1.33-.31-1.33-1.33v-26.83h-6.81Z"/><path class="c" d="M573.66,336.83c0,1.02-.31,1.33-1.33,1.33h-22.02c-1.02,0-1.33-.31-1.33-1.33v-33.94c0-1.02,.31-1.33,1.33-1.33h21.25c1.02,0,1.33,.31,1.33,1.33v5.79c0,1.02-.31,1.33-1.33,1.33h-12.95v5.38h8.09c1.02,0,1.33,.31,1.33,1.33v5.94c0,1.02-.31,1.33-1.33,1.33h-8.09v5.73h13.72c1.02,0,1.33,.31,1.33,1.33v5.79Z"/><path class="c" d="M612.83,318.29h-.05v18.53c0,1.02-.31,1.33-1.33,1.33h-6.66c-1.02,0-1.33-.31-1.33-1.33v-33.94c0-1.02,.31-1.33,1.33-1.33h6.14c1.08,0,1.48,.2,2.05,1.13l11.01,17.61h.05v-17.41c0-1.02,.31-1.33,1.33-1.33h6.66c1.02,0,1.33,.31,1.33,1.33v33.94c0,1.02-.31,1.33-1.33,1.33h-5.43c-1.08,0-1.48-.2-2.05-1.13l-11.72-18.74Z"/><path class="c" d="M689.88,336.83c0,1.02-.31,1.33-1.33,1.33h-22.02c-1.02,0-1.33-.31-1.33-1.33v-33.94c0-1.02,.31-1.33,1.33-1.33h21.25c1.02,0,1.33,.31,1.33,1.33v5.79c0,1.02-.31,1.33-1.33,1.33h-12.95v5.38h8.09c1.02,0,1.33,.31,1.33,1.33v5.94c0,1.02-.31,1.33-1.33,1.33h-8.09v5.73h13.72c1.02,0,1.33,.31,1.33,1.33v5.79Z"/><path class="c" d="M719.68,302.88c0-1.02,.31-1.33,1.33-1.33h20.53c4.92,0,6.55,2.71,6.55,6.09v11.32c0,3.38-1.64,6.04-6.55,6.04h-.2l8.35,12.08c.56,.77,.36,1.08-.56,1.08h-8.45c-1.08,0-1.48-.2-2.05-1.13l-7.94-12.03h-1.38v11.83c0,1.02-.31,1.33-1.33,1.33h-6.96c-1.02,0-1.33-.31-1.33-1.33v-33.94Zm9.63,7.12v6.55h7.48c.92,0,1.69-.77,1.69-1.69v-3.17c0-.92-.77-1.69-1.69-1.69h-7.48Z"/></g></svg>