<?xml version="1.0" encoding="UTF-8"?><svg id="a" xmlns="http://www.w3.org/2000/svg" viewBox="0 0 429.1 81.96"><defs><style>.b{fill:#d1d3d4;}</style></defs><g><path class="b" d="M69.41,9.67S56.89-.96,42.2,15.97c0,0-11.29-1.81-15.81,14.26,0,0,10.45-9.33,10.63,1.38,0,0-4.84,15.55,10.71,29.2,0,0-1.9,10.56,5.01,14.77,0,0-4.75-19.27,13.48-15.46,0,0-3.89-7.08-15.81-2.25,0,0-7.07-18.66,.91-23.93,0,0,5.39,2.07,3.15,10.45,0,0,10.41-7.08,2.4-19.01,0,0,5.03-8.55,11.08-8.64,0,0,6.39-.95,9.24-3.63,2.85-2.68-7.78-3.46-7.78-3.46Z"/><path class="b" d="M5.07,11.88V29.86c0,3.09-1.69,4.63-5.07,4.63v7.21c3.38,0,5.07,1.54,5.07,4.63v23.76c0,7.3,3.29,10.95,9.88,10.95h4.81v-6.14h-3.38c-2.55,0-3.83-1.51-3.83-4.54v-24.83c0-3.92-1.87-6.47-5.61-7.65,3.74-.83,5.61-3.11,5.61-6.85V11.62c0-3.03,1.27-4.54,3.83-4.54h3.38V.94h-4.81C8.36,.94,5.07,4.59,5.07,11.88Z"/><path class="b" d="M98.48,29.86V11.88c0-7.3-3.26-10.95-9.79-10.95h-4.81V7.08h3.29c2.55,0,3.83,1.51,3.83,4.54V31.02c0,3.74,1.9,6.02,5.7,6.85-3.8,1.19-5.7,3.74-5.7,7.65v24.83c0,3.03-1.28,4.54-3.83,4.54h-3.29v6.14h4.81c6.52,0,9.79-3.65,9.79-10.95v-23.76c0-3.08,1.72-4.63,5.16-4.63v-7.21c-3.44,0-5.16-1.54-5.16-4.63Z"/></g><g><path class="b" d="M142.82,22.05h-5.17c-6.4,0-9.6,3.39-9.6,10.18v39.55c0,6.79,3.2,10.18,9.6,10.18h5.17c6.4,0,9.6-3.39,9.6-10.18v-3.84h-8.01v3.25c0,2.34-1.06,3.5-3.17,3.5h-2c-2.11,0-3.17-1.17-3.17-3.5V32.82c0-2.34,1.06-3.5,3.17-3.5h1.59c2.39,0,3.59,1.17,3.59,3.5v6.17h8.01v-6.76c0-6.79-3.2-10.18-9.6-10.18Z"/><path class="b" d="M175.53,22.05h-7.68c-6.4,0-9.6,3.42-9.6,10.26v39.47c0,6.79,3.23,10.18,9.68,10.18h7.51c6.45,0,9.68-3.39,9.68-10.18V32.32c0-6.84-3.2-10.26-9.6-10.26Zm1.59,49.15c0,2.34-1.06,3.5-3.17,3.5h-4.09c-2.39,0-3.59-1.17-3.59-3.5V32.82c0-2.34,1.17-3.5,3.5-3.5h3.75c2.39,0,3.59,1.17,3.59,3.5v38.38Z"/><path class="b" d="M206.15,22.05h-13.93v59.91h15.6c6.4,0,9.6-2.89,9.6-8.68V33.57c0-7.68-3.75-11.52-11.26-11.52Zm3.25,49.98c0,1.78-1.06,2.67-3.17,2.67h-6.01V29.31h5.59c2.39,0,3.59,1.45,3.59,4.34v38.38Z"/><rect class="b" x="224.5" y="22.05" width="8.01" height="59.91"/><polygon class="b" points="256.63 51.01 248.03 22.05 240.02 22.05 240.02 81.96 248.03 81.96 248.03 42.75 256.63 70.03 256.63 81.96 264.64 81.96 264.64 22.05 256.63 22.05 256.63 51.01"/><path class="b" d="M286.5,22.05h-5.51c-6.17,0-9.26,3.42-9.26,10.26v39.55c0,6.73,3.09,10.1,9.26,10.1h15.69v-29.2h-12.18v7.26h4.17v14.69h-5.42c-2.34,0-3.5-1.45-3.5-4.34V33.65c0-2.89,1.17-4.34,3.5-4.34h2c2.28,0,3.42,1.45,3.42,4.34v5.34h8.01v-6.51c0-6.95-3.39-10.43-10.18-10.43Z"/><path class="b" d="M330.89,22.05h-5.17c-6.4,0-9.6,3.39-9.6,10.18v39.55c0,6.79,3.2,10.18,9.6,10.18h5.17c6.4,0,9.6-3.39,9.6-10.18v-3.84h-8.01v3.25c0,2.34-1.06,3.5-3.17,3.5h-2c-2.11,0-3.17-1.17-3.17-3.5V32.82c0-2.34,1.06-3.5,3.17-3.5h1.59c2.39,0,3.59,1.17,3.59,3.5v6.17h8.01v-6.76c0-6.79-3.2-10.18-9.6-10.18Z"/><polygon class="b" points="354.75 22.05 346.74 22.05 346.74 81.96 365.77 81.96 365.77 74.7 354.75 74.7 354.75 22.05"/><path class="b" d="M388.38,70.78c0,2.62-1.08,3.92-3.25,3.92h-3.25c-2.34,0-3.5-1.31-3.5-3.92V22.05h-8.01v48.48c0,7.62,3.2,11.43,9.6,11.43h6.76c6.45,0,9.68-3.78,9.68-11.35V22.05h-8.01v48.73Z"/><path class="b" d="M422.51,51.17v-.42c3.84-.78,5.76-2.89,5.76-6.34v-11.52c0-7.23-3.56-10.85-10.68-10.85h-13.68v59.91h16.1c6.06,0,9.09-2.98,9.09-8.93v-15.02c0-3.34-2.2-5.62-6.59-6.84Zm-10.6-21.86h4.76c2.39,0,3.59,1.45,3.59,4.34v9.35c0,2.89-1.53,4.34-4.59,4.34h-3.75V29.31Zm9.18,42.81c0,1.73-1.06,2.59-3.17,2.59h-6.01v-20.11h4.42c3.17,0,4.76,1.42,4.76,4.26v13.27Z"/><polygon class="b" points="130.49 11.56 130.25 3.81 136.31 18.76 138.18 18.76 144.26 3.78 144.03 11.56 144.03 18.76 146.47 18.76 146.47 .25 143.3 .25 137.25 15.36 131.2 .25 128.05 .25 128.05 18.76 130.49 18.76 130.49 11.56"/><polygon class="b" points="162.55 18.76 165.01 18.76 165.01 .25 162.55 .25 162.55 8.21 153.22 8.21 153.22 .25 150.78 .25 150.78 18.76 153.22 18.76 153.22 10.21 162.55 10.21 162.55 18.76"/><path class="b" d="M178.18,16.23c-.69,.53-1.67,.79-2.96,.79-1.38,0-2.49-.32-3.31-.97-.83-.65-1.24-1.53-1.24-2.65h-2.45c0,1.08,.3,2.04,.9,2.89,.6,.85,1.45,1.52,2.55,2,1.1,.49,2.29,.73,3.56,.73,1.96,0,3.52-.45,4.69-1.35,1.17-.9,1.75-2.1,1.75-3.6,0-.94-.21-1.76-.63-2.45-.42-.69-1.06-1.3-1.93-1.82-.87-.52-2.07-1-3.61-1.43-1.54-.43-2.63-.91-3.27-1.43-.64-.52-.96-1.16-.96-1.92,0-.94,.34-1.68,1.01-2.21,.67-.53,1.61-.8,2.82-.8,1.3,0,2.3,.32,3.01,.96s1.07,1.52,1.07,2.65h2.45c0-1.03-.27-1.97-.82-2.83-.55-.86-1.32-1.54-2.31-2.03-1-.49-2.13-.74-3.4-.74-1.86,0-3.38,.48-4.54,1.43-1.17,.95-1.75,2.16-1.75,3.62,0,1.29,.48,2.37,1.43,3.25,.95,.88,2.48,1.62,4.57,2.22,1.67,.48,2.82,.97,3.46,1.47,.64,.5,.95,1.2,.95,2.1s-.34,1.62-1.03,2.15Z"/></g></svg>