<svg xmlns="http://www.w3.org/2000/svg" viewBox="0 0 700 697.96"><defs><style>.a{fill:#aaa;}.b{fill:#1c3aa8;}.c{fill:#4284f2;}</style></defs><path class="a" d="M227.81,400.77l106.76-.13H347l1.38,1.74c-1.54,1-3.32,1.72-4.59,3-27.54,27.46-55,55-82.61,82.39-3,3-3,4.84-.66,8.11,30.12,42.37,70.76,66.94,122.52,73,73.85,8.67,126-24.84,164.58-84.61.56-.87,1.07-1.78,1.62-2.68,1.91.45,2.82,2,4,3.21q60.48,61.07,121,122.1c2.88,2.91,3.24,4.59.57,7.91-57.81,72-131.89,116.44-223.32,130-94.27,14-180.26-7.84-258.13-62.88-23.45-16.57-43.87-36.08-62.31-57.86-2.65-3.12-3.84-2.39-6.22,0Q90.09,659,55.24,693.79a49.24,49.24,0,0,0-3.67,4.74c-2.13-2.87-1.4-5-1.4-7q-.08-122.92-.05-245.85c0-15.1-.07-30.21-.11-45.31,3.46.12,6.92.32,10.38.33q66.3.16,132.59.28C204.59,401,216.2,400.86,227.81,400.77Z" transform="translate(-50 -51.02)"/><path class="b" d="M398.66,51.23A321.22,321.22,0,0,1,491.25,63Q596.78,91.71,667.53,175.3c3,3.57,4.47,3.64,7.75.31,22.92-23.22,46.06-46.23,69.15-69.28,1.32-1.32,2.39-3,4.43-3.68,1.52,2,.76,4.34.76,6.48q.07,133.82,0,267.64c0,5.72-.14,11.47.29,17.17.34,4.47-1.33,5.53-5.57,5.49q-49.47-.4-98.93-.41-91.9,0-183.81.26c-1.21,0-2.43.07-3.64,0-1.5-.11-3.66.72-4.35-.7-.92-1.93,1.42-2.86,2.55-4q41-41.1,82.15-82.06c3.11-3.07,3.35-5.06.8-8.62-30.11-42.13-70.53-66.8-122.15-72.77-6.34-.73-12.52-3.06-19.05-1.89C398,169.9,397.11,110.56,398.66,51.23Z" transform="translate(-50 -51.02)"/><path class="c" d="M398.66,51.23c-1.55,59.33-.67,118.67-.7,178v119l-1.53,1.13c-1-1.58-1.85-3.39-3.16-4.7-27.19-27.29-54.5-54.47-81.62-81.83-3-3.07-5.08-3.81-8.92-1.06C260.5,292,235.85,332.55,229.94,384.32c-.63,5.5-2.62,10.81-2.13,16.45-11.61.09-23.22.25-34.83.24q-66.28-.09-132.59-.28c-3.46,0-6.92-.21-10.38-.33A338.66,338.66,0,0,1,74.29,271.94a345.35,345.35,0,0,1,100.38-139c3.2-2.69,3.19-4,.27-6.92-23.45-23.2-46.71-46.57-70.08-69.84-1.29-1.28-3.08-2.06-4.87-3.23a6.67,6.67,0,0,1,5.51-1.66Q250,51.13,394.5,51C395.89,51,397.27,51.16,398.66,51.23Z" transform="translate(-50 -51.02)"/></svg>