<?xml version="1.0" standalone="no"?>
<!DOCTYPE svg PUBLIC "-//W3C//DTD SVG 20010904//EN"
 "http://www.w3.org/TR/2001/REC-SVG-20010904/DTD/svg10.dtd">
<svg version="1.0" xmlns="http://www.w3.org/2000/svg"
 width="500.000000pt" height="500.000000pt" viewBox="0 0 500.000000 500.000000"
 preserveAspectRatio="xMidYMid meet">
<metadata>
Created by potrace 1.14, written by Peter Selinger 2001-2017
</metadata>
<g transform="translate(0.000000,500.000000) scale(0.100000,-0.100000)"
fill="#000000" stroke="none">
<path d="M80 4170 l0 -580 180 0 180 0 0 -1090 0 -1090 -180 0 -180 0 0 -580
0 -580 1040 0 1040 0 0 230 0 230 370 0 370 0 0 -230 0 -230 1010 0 1010 0 0
580 0 580 -185 0 -185 0 0 1090 0 1090 185 0 185 0 0 580 0 580 -902 0 -903 0
-309 -790 c-170 -434 -312 -787 -315 -784 -3 3 -144 357 -312 787 l-307 782
-896 3 -896 2 0 -580z m1643 278 c13 -35 190 -486 392 -1003 202 -517 371
-943 375 -948 3 -4 184 446 401 1000 l395 1008 692 3 692 2 0 -335 0 -335
-185 0 -185 0 0 -1340 0 -1340 185 0 185 0 0 -335 0 -335 -760 0 -760 0 0 335
0 335 105 0 105 0 0 628 -1 627 -163 -445 c-89 -245 -209 -574 -267 -732
l-104 -288 -296 0 c-228 0 -298 3 -302 13 -32 79 -580 1383 -583 1386 -2 2 -4
-264 -4 -592 l0 -597 135 0 135 0 0 -335 0 -335 -790 0 -790 0 0 335 0 335
175 0 175 0 0 1340 0 1340 -175 0 -175 0 0 335 0 335 684 0 684 0 25 -62z"/>
</g>
</svg>
